<svg width="25" height="25" viewBox="0 0 25 25" fill="none" xmlns="http://www.w3.org/2000/svg">
<g clip-path="url(#clip0_4_719)">
<path d="M24.9868 12.7339C24.9868 11.7096 24.9017 10.9622 24.7177 10.1871H12.749V14.81H19.7743C19.6328 15.9589 18.8679 17.689 17.1682 18.8516L17.1443 19.0064L20.9286 21.8712L21.1908 21.8968C23.5987 19.7237 24.9868 16.5263 24.9868 12.7339Z" fill="#4285F4"/>
<path d="M12.749 24.9141C16.1908 24.9141 19.0803 23.8068 21.1908 21.8968L17.1682 18.8516C16.0917 19.5852 14.647 20.0973 12.749 20.0973C9.37796 20.0973 6.51683 17.9243 5.49692 14.9208L5.34742 14.9332L1.41247 17.9091L1.36102 18.0489C3.45728 22.1181 7.76319 24.9141 12.749 24.9141Z" fill="#34A853"/>
<path d="M5.49706 14.9208C5.22795 14.1457 5.0722 13.3152 5.0722 12.4571C5.0722 11.5989 5.22795 10.7684 5.4829 9.99332L5.47577 9.82825L1.49152 6.80458L1.36116 6.86517C0.497184 8.55382 0.00143433 10.4501 0.00143433 12.4571C0.00143433 14.464 0.497184 16.3602 1.36116 18.0489L5.49706 14.9208Z" fill="#FBBC05"/>
<path d="M12.749 4.8167C15.1427 4.8167 16.7574 5.8271 17.6781 6.67147L21.2758 3.23884C19.0662 1.23187 16.1908 0 12.749 0C7.76319 0 3.45728 2.7959 1.36102 6.86517L5.48276 9.99332C6.51683 6.98979 9.37796 4.8167 12.749 4.8167Z" fill="#EB4335"/>
</g>
<defs>
<clipPath id="clip0_4_719">
<rect width="25" height="25" fill="white"/>
</clipPath>
</defs>
</svg>
