<svg width="263" height="247" viewBox="0 0 263 247" fill="none" xmlns="http://www.w3.org/2000/svg">
<path d="M107.997 70.1924C107.046 70.1939 106.116 69.9093 105.326 69.3746C104.535 68.8399 103.919 68.0794 103.556 67.1895L96.4129 49.732C95.9246 48.5393 95.9243 47.1991 96.412 46.0062C96.8997 44.8133 97.8354 43.8654 99.0134 43.371C99.5966 43.1262 100.222 43.0002 100.853 43C101.485 42.9998 102.11 43.1256 102.693 43.3701C103.871 43.8639 104.808 44.8113 105.296 46.004L112.439 63.4615C112.742 64.201 112.86 65.0048 112.782 65.8016C112.705 66.5984 112.435 67.3635 111.995 68.0292C111.556 68.6949 110.961 69.2406 110.264 69.6179C109.567 69.9953 108.788 70.1926 107.997 70.1924V70.1924ZM163.146 205C162.195 205.002 161.265 204.717 160.474 204.182C159.683 203.648 159.067 202.887 158.704 201.997L151.561 184.54C151.073 183.347 151.073 182.007 151.56 180.814C152.048 179.621 152.984 178.673 154.162 178.179C155.34 177.684 156.663 177.684 157.842 178.178C159.02 178.671 159.956 179.619 160.444 180.812L167.587 198.269C167.89 199.009 168.008 199.812 167.931 200.609C167.853 201.406 167.583 202.171 167.144 202.837C166.704 203.503 166.11 204.048 165.412 204.426C164.715 204.803 163.936 205 163.146 205V205ZM56.8097 160.4C55.6973 160.401 54.619 160.011 53.7588 159.296C52.8986 158.582 52.3097 157.588 52.0925 156.483C51.8753 155.379 52.0433 154.232 52.5678 153.238C53.0923 152.245 53.9408 151.467 54.9687 151.036L72.2107 143.804C73.3886 143.31 74.7123 143.309 75.8905 143.803C77.0687 144.297 78.0049 145.244 78.4932 146.437C78.9814 147.63 78.9818 148.97 78.4941 150.163C78.0064 151.356 77.0706 152.303 75.8927 152.798L58.6507 160.03C58.0669 160.274 57.4414 160.4 56.8097 160.4ZM189.948 104.567C188.836 104.568 187.758 104.178 186.897 103.464C186.037 102.749 185.448 101.755 185.231 100.65C185.014 99.5457 185.182 98.399 185.706 97.4056C186.231 96.4123 187.079 95.634 188.107 95.2033L205.349 87.9711C206.516 87.5349 207.804 87.5729 208.943 88.0771C210.083 88.5813 210.985 89.5126 211.461 90.6757C211.937 91.8387 211.95 93.1433 211.497 94.3158C211.044 95.4884 210.16 96.4378 209.031 96.9651L191.789 104.197C191.205 104.439 190.58 104.565 189.948 104.567V104.567ZM155.998 70.1924C155.208 70.1918 154.43 69.9939 153.733 69.6162C153.036 69.2385 152.442 68.6928 152.003 68.0272C151.565 67.3616 151.295 66.5968 151.218 65.8004C151.141 65.004 151.259 64.2007 151.561 63.4615L158.704 46.004C159.192 44.8113 160.129 43.8639 161.307 43.3701C162.485 42.8763 163.809 42.8766 164.987 43.371C166.165 43.8654 167.1 44.8133 167.588 46.0062C168.076 47.1991 168.075 48.5393 167.587 49.732L160.444 67.1895C160.08 68.0794 159.463 68.8398 158.671 69.3743C157.88 69.9089 156.949 70.1936 155.998 70.1924ZM100.85 205C100.059 204.999 99.2813 204.802 98.5845 204.424C97.8878 204.046 97.2937 203.5 96.855 202.835C96.4163 202.169 96.1464 201.404 96.0693 200.608C95.9922 199.812 96.1102 199.008 96.4129 198.269L103.556 180.812C104.044 179.619 104.98 178.671 106.158 178.178C107.337 177.684 108.66 177.684 109.838 178.179C111.016 178.673 111.952 179.621 112.44 180.814C112.927 182.007 112.927 183.347 112.439 184.54L105.296 201.997C104.527 203.866 102.739 205 100.85 205V205ZM74.0469 104.567C73.4167 104.568 72.7926 104.442 72.2107 104.197L54.9687 96.9651C53.7908 96.4707 52.855 95.5228 52.3673 94.3299C51.8797 93.1369 51.88 91.7967 52.3682 90.6041C52.8565 89.4114 53.7927 88.4639 54.9709 87.9702C56.1491 87.4764 57.4728 87.4767 58.6507 87.9711L75.8927 95.2033C76.921 95.6341 77.7698 96.4129 78.2942 97.4067C78.8187 98.4005 78.9863 99.5478 78.7685 100.653C78.5506 101.758 77.9609 102.752 77.0998 103.466C76.2388 104.18 75.1598 104.569 74.0469 104.567ZM207.185 160.4C206.555 160.401 205.931 160.275 205.349 160.03L188.107 152.798C187.524 152.553 186.994 152.194 186.548 151.742C186.101 151.29 185.747 150.753 185.506 150.163C185.264 149.572 185.14 148.939 185.14 148.3C185.141 147.66 185.265 147.027 185.507 146.437C185.749 145.846 186.103 145.31 186.549 144.858C186.996 144.406 187.526 144.047 188.109 143.803C188.693 143.558 189.318 143.433 189.949 143.433C190.581 143.433 191.206 143.559 191.789 143.804L209.031 151.036C210.06 151.467 210.908 152.246 211.433 153.24C211.957 154.233 212.125 155.381 211.907 156.486C211.689 157.591 211.099 158.585 210.238 159.299C209.377 160.013 208.298 160.402 207.185 160.4Z" fill="#FFAA45"/>
<path d="M132 174C157.957 174 179 151.614 179 124C179 96.3858 157.957 74 132 74C106.043 74 85 96.3858 85 124C85 151.614 106.043 174 132 174Z" fill="#FFAA45"/>
<path d="M131.972 83.0001C139.888 82.9855 147.629 85.3554 154.211 89.8082C160.793 94.261 165.918 100.596 168.934 108.006C170.958 112.914 172 118.181 172 123.5C172 128.819 170.958 134.086 168.934 138.994C166.937 143.914 163.996 148.384 160.281 152.145C156.566 155.907 152.151 158.884 147.292 160.907C142.448 162.948 137.253 164 132.006 164C124.09 164.016 116.348 161.646 109.766 157.193C103.184 152.74 98.0591 146.405 95.0442 138.994C86.6068 118.367 96.3135 94.6412 116.686 86.0934C121.53 84.0513 126.725 82.9999 131.972 83.0001" fill="#FFDA69"/>
</svg>
